<svg width="28" height="40" viewBox="0 0 28 40" fill="none" xmlns="http://www.w3.org/2000/svg">
<path fill-rule="evenodd" clip-rule="evenodd" d="M25 25.3211C25 32.033 20.684 37 14 37C7.31597 37 3 32.033 3 25.3211C3 24.9191 3.05729 24.4464 3.17289 23.908C2.15383 23.7656 1.18658 23.4615 0.297882 23.0225C0.10539 23.8458 0 24.6177 0 25.3211C0 33.428 5.4089 40 14 40C22.5911 40 28 33.428 28 25.3211C28 19.0873 19.722 7.46851 15.8968 2.43225C14.7474 0.91897 14 0 14 0C14 0 13.2526 0.918969 12.1032 2.43225C11.3137 3.47176 10.3344 4.7917 9.27741 6.28685C10.1513 6.79626 10.9365 7.44114 11.6042 8.19272C12.473 6.95951 13.2931 5.84129 14 4.89892C15.2602 6.57876 16.8797 8.81734 18.4942 11.27C20.2057 13.8699 21.8743 16.6543 23.1044 19.2353C24.3802 21.9122 25 23.9988 25 25.3211Z" fill="#FF2744"/>
</svg>
