<svg width="50" height="50" viewBox="0 0 50 50" fill="none" xmlns="http://www.w3.org/2000/svg">
<rect width="50" height="50" rx="6" fill="#FFE6E2"/>
<path d="M38 29.789C38 37.0852 33.1706 43 25.5 43C17.8294 43 13 37.0852 13 29.789C13 24.4711 19.6405 14.7988 23.2414 9.94474C24.3808 8.40891 26.6192 8.40891 27.7586 9.94474C31.3595 14.7988 38 24.4711 38 29.789Z" fill="#FF576E"/>
<path d="M27.3434 36.054C27.0794 36.054 26.8334 36.042 26.6054 36.018C26.3894 36.006 26.2394 36 26.1554 36H25.7054C25.5974 35.988 25.4234 35.982 25.1834 35.982C24.8474 35.982 24.6074 35.934 24.4634 35.838C24.2834 35.706 24.1934 34.442 24.1934 34.046C24.1934 34.034 24.1994 34.022 24.2114 34.01C24.2234 33.986 24.2294 33.956 24.2294 33.92C24.2294 33.812 24.2354 33.722 24.2474 33.65L24.3194 33.236C24.3194 33.176 24.2954 33.026 24.2474 32.786L24.2294 32.516C24.2294 32.468 24.2234 32.432 24.2114 32.408C24.1994 32.372 24.1934 32.348 24.1934 32.336H22.5194C22.1234 32.372 20.8354 32.312 20.6554 32.156C20.5714 32.108 20.5294 32 20.5294 31.832V29.816C20.5054 29.684 20.4934 29.444 20.4934 29.096C20.4934 29 20.5474 28.898 20.6554 28.79C20.7754 28.694 20.8834 28.646 20.9794 28.646H24.1934V27.062C24.1934 26.63 24.2654 25.342 24.4094 25.198C24.4574 25.114 24.5654 25.072 24.7334 25.072C25.0694 25.072 25.3094 25.06 25.4534 25.036H27.4334C27.5534 25.036 27.6614 25.096 27.7574 25.216C27.8654 25.324 27.9194 26.426 27.9194 26.522V28.682C28.4114 28.718 28.8974 28.736 29.3774 28.736C29.7254 28.736 30.9714 28.76 31.1154 28.808C31.3554 28.88 31.4754 29.018 31.4754 29.222L31.4574 30.392C31.4454 30.488 31.4394 30.644 31.4394 30.86V31.346C31.4394 31.55 31.4274 31.706 31.4034 31.814C31.3914 31.922 31.3554 32.006 31.2954 32.066C31.1754 32.246 29.9234 32.336 29.5394 32.336H27.8654C27.8654 32.516 27.8534 32.786 27.8294 33.146V33.938C27.8294 34.274 27.8054 35.514 27.7574 35.658C27.6614 35.922 27.5234 36.054 27.3434 36.054Z" fill="white"/>
</svg>
