<svg width="20" height="20" viewBox="0 0 20 20" fill="none" xmlns="http://www.w3.org/2000/svg">
<path d="M13.1227 1.6665C16.3402 1.6665 18.3335 3.66067 18.3335 6.87984V13.1298C18.3335 16.3398 16.3402 18.3332 13.1227 18.3332H6.87021C3.66021 18.3332 1.66687 16.3398 1.66771 13.1273C1.66771 12.7757 1.95271 12.4898 2.30521 12.4898C2.65687 12.4898 2.94271 12.7757 2.94271 13.1273C2.94271 15.6557 4.33521 17.0557 6.87854 17.0557H13.1227C15.6585 17.0557 17.0585 15.6632 17.0585 13.1273V6.87734C17.0585 4.3415 15.6669 2.9415 13.1227 2.9415H6.87771C4.34187 2.9415 2.94187 4.3415 2.94187 6.87734V8.81984C2.94187 9.16817 2.65937 9.44984 2.31187 9.44984H2.30271C1.95104 9.44984 1.66604 9.164 1.66687 8.81234V6.87734C1.66687 3.66067 3.67521 1.6665 6.87854 1.6665H13.1227ZM9.99562 8.85475C10.3406 8.85475 10.6206 9.13475 10.6206 9.47975V13.1631C10.6206 13.5081 10.3406 13.7881 9.99562 13.7881C9.65062 13.7881 9.37062 13.5081 9.37062 13.1631V9.47975C9.37062 9.13475 9.65062 8.85475 9.99562 8.85475ZM10.0042 6.21159C10.3492 6.21159 10.6292 6.49159 10.6292 6.83659C10.6292 7.18159 10.3492 7.46159 10.0042 7.46159H9.99587C9.65087 7.46159 9.37504 7.18159 9.37504 6.83659C9.37504 6.49159 9.65921 6.21159 10.0042 6.21159Z" fill="#FBFBFB"/>
</svg>
