<svg width="48" height="48" viewBox="0 0 48 48" fill="none" xmlns="http://www.w3.org/2000/svg">
<path d="M41.1188 17.5803C41.9221 17.59 42.5682 18.2426 42.5682 19.0442V31.9895C42.5682 39.3968 37.9371 44 30.5134 44H24.6097C23.7966 44 23.1347 43.3475 23.125 42.5362C23.1345 41.7219 23.7937 41.0642 24.6097 41.0547H30.5134C36.364 41.0547 39.5987 37.8448 39.6517 31.9895V19.0442C39.6517 18.2357 40.3085 17.5803 41.1188 17.5803ZM29.0463 5.55217C29.8594 5.56183 30.5134 6.22229 30.5134 7.03365C30.5134 7.42496 30.3564 7.79999 30.0775 8.07502C29.7985 8.35006 29.4208 8.5022 29.0286 8.49749H16.0371C10.1865 8.49749 6.95182 11.725 6.95182 17.5803V31.9895C6.95182 37.8448 10.1865 41.0547 16.0371 41.0547C16.8531 41.0642 17.5123 41.7219 17.5218 42.5362C17.5122 43.3475 16.8502 44 16.0371 44C8.61333 44 4 39.3968 4 31.9895V17.5803C4 10.1553 8.61333 5.55217 16.0371 5.55217H29.0463ZM31.2811 18.9483C31.7973 18.5967 32.4928 18.6068 33.0021 18.9977C33.575 19.4374 33.7416 20.2281 33.3945 20.8608L27.7383 28.1447C27.4907 28.4497 27.1376 28.651 26.7485 28.7091C26.3613 28.7483 25.9741 28.6343 25.6703 28.3916L20.2439 24.1412L15.3654 30.4727C15.1328 30.7885 14.783 30.998 14.3943 31.0544C14.0056 31.1107 13.6104 31.0092 13.2974 30.7725C12.6584 30.2727 12.5403 29.3535 13.0322 28.7091L18.8122 21.1959C19.0533 20.8844 19.4087 20.6814 19.8 20.6318C20.1913 20.5821 20.5863 20.6899 20.8979 20.9313L26.3243 25.1817L31.0967 19.0971L31.2811 18.9483ZM36.8023 4.39993C38.7436 3.5918 40.9816 4.03106 42.4715 5.51261C43.9614 6.99416 44.4093 9.22577 43.606 11.1655C42.8027 13.1052 40.9067 14.3705 38.8032 14.3705C35.9401 14.3705 33.6164 12.0597 33.6066 9.20295L33.6184 8.83486C33.7502 6.88485 34.9752 5.16052 36.8023 4.39993ZM38.8032 6.9631C37.5635 6.9631 36.5584 7.96592 36.5584 9.20295C36.5584 10.44 37.5635 11.4428 38.8032 11.4428C40.043 11.4428 41.048 10.44 41.048 9.20295C41.048 7.96592 40.043 6.9631 38.8032 6.9631Z" fill="#BEBEBE"/>
</svg>
