<svg width="48" height="48" viewBox="0 0 48 48" fill="none" xmlns="http://www.w3.org/2000/svg">
<path d="M40 36.6602C40 43.238 30.8689 44 24 44C23.3077 44 22.6254 43.99 21.9552 43.97C21.1582 43.95 20.5303 43.288 20.5545 42.494C20.5766 41.7021 21.2649 41.1061 22.0377 41.1001C22.6818 41.1181 23.3358 41.1261 24 41.1261C32.6984 41.1261 37.1099 39.6241 37.1099 36.6602C37.1099 33.6683 32.6984 32.1503 24 32.1503C15.3016 32.1503 10.8901 33.6543 10.8901 36.6202C10.8901 37.5902 11.2362 38.9961 14.241 40.0081C14.9977 40.2621 15.4023 41.0761 15.1467 41.8261C14.8891 42.576 14.0719 42.986 13.3132 42.726C8.92176 41.2481 8 38.5901 8 36.6202C8 30.1746 16.7622 29.3119 23.5767 29.2794L24.7617 29.2798C29.3063 29.3029 40 29.7042 40 36.6602ZM24 4C29.9411 4 34.7733 8.80388 34.7733 14.7077C34.7733 20.6096 29.9411 25.4135 24 25.4135C18.0589 25.4135 13.2247 20.6096 13.2247 14.7077C13.2247 8.80388 18.0589 4 24 4ZM24 6.87393C19.6528 6.87393 16.1167 10.3878 16.1167 14.7077C16.1167 19.0256 19.6528 22.5395 24 22.5395C28.3472 22.5395 31.8833 19.0256 31.8833 14.7077C31.8833 10.3878 28.3472 6.87393 24 6.87393Z" fill="#BEBEBE"/>
</svg>
