<svg width="20" height="20" viewBox="0 0 20 20" fill="none" xmlns="http://www.w3.org/2000/svg">
<path d="M17.7154 9.50822C18.0543 9.50822 18.3297 9.78239 18.3297 10.1216V13.4166C18.3297 16.3575 16.4349 18.3334 13.6137 18.3334H6.38184C3.56139 18.3334 1.66663 16.3575 1.66663 13.4166C1.66663 13.0783 1.94291 12.8033 2.2818 12.8033C2.62152 12.8033 2.89697 13.0783 2.89697 13.4166C2.89697 15.6583 4.26421 17.1058 6.38184 17.1058H13.6137C15.7321 17.1058 17.101 15.6583 17.101 13.4166V10.1216C17.101 9.78239 17.3756 9.50822 17.7154 9.50822ZM16.4655 2.30575L16.5838 2.4167L17.5812 3.41255C18.067 3.89672 18.3333 4.54173 18.3333 5.22507C18.3333 5.853 18.1096 6.44661 17.6981 6.91413L17.5812 7.03843L11.4278 13.1819C11.0166 13.5925 10.4825 13.835 9.90904 13.8757L9.7359 13.8819H6.66421C6.49894 13.8819 6.34035 13.8152 6.22433 13.696C6.13218 13.6014 6.07368 13.4806 6.05568 13.3515L6.04988 13.2535L6.1275 10.1618C6.14192 9.60196 6.3488 9.0724 6.71365 8.65392L6.82781 8.53179L12.9528 2.4167C13.9151 1.45515 15.4578 1.41816 16.4655 2.30575ZM13.9171 3.1977L13.8217 3.28421L13.3176 3.78755L14.8793 5.34674C15.1189 5.58675 15.1189 5.97425 14.8793 6.21509C14.7591 6.33426 14.6014 6.39426 14.4444 6.39426C14.3182 6.39426 14.1926 6.35586 14.0858 6.27948L14.0096 6.21509L12.4487 4.65507L7.69757 9.3993C7.51513 9.58073 7.40076 9.81421 7.36655 10.0656L7.35618 10.1926L7.29525 12.6544H9.7359C10.0021 12.6544 10.2547 12.5662 10.4602 12.4025L10.5589 12.3143L16.7123 6.17092C17.2033 5.67993 17.2322 4.90031 16.799 4.37606L16.7123 4.28089L15.7148 3.28421C15.2231 2.79401 14.4422 2.76517 13.9171 3.1977ZM9.44618 1.69827C9.7859 1.69827 10.0614 1.97327 10.0614 2.31161C10.0614 2.65079 9.7859 2.92496 9.44618 2.92496H6.382C4.26437 2.92496 2.8963 4.37331 2.8963 6.61501V9.75589C2.8963 10.0942 2.62085 10.3692 2.28197 10.3692C1.94224 10.3692 1.66679 10.0942 1.66679 9.75589V6.61501C1.66679 3.67413 3.56156 1.69827 6.382 1.69827H9.44618Z" fill="#FBFBFB"/>
</svg>
