<svg width="20" height="20" viewBox="0 0 20 20" fill="none" xmlns="http://www.w3.org/2000/svg">
<path d="M6.45333 16.4653C6.20538 16.2197 6.18316 15.8342 6.39239 15.5653L6.45519 15.4951L12.5602 9.51456C12.8335 9.24662 13.275 9.24754 13.5464 9.51639C13.6812 9.6499 13.75 9.82547 13.75 10.0001C13.75 10.1472 13.7022 10.2936 13.6072 10.4156L13.5446 10.4857L7.43954 16.4662C7.16627 16.7341 6.72475 16.7332 6.45333 16.4653ZM6.45528 4.50593C6.18108 4.238 6.18294 3.80363 6.45342 3.5357C6.70222 3.28925 7.09395 3.26795 7.36801 3.47178L7.43964 3.53296L11.4942 7.50441C11.6308 7.63792 11.6996 7.81441 11.6996 7.98999C11.6996 8.16465 11.6308 8.34022 11.496 8.47373C11.2472 8.72018 10.8555 8.74148 10.5814 8.53765L10.5098 8.47647L6.45528 4.50593Z" fill="#BEBEBE"/>
</svg>
