<svg width="20" height="20" viewBox="0 0 20 20" fill="none" xmlns="http://www.w3.org/2000/svg">
<path d="M17.5 10.0001C17.5 10.3527 17.2397 10.644 16.9037 10.6867L16.8182 10.6921H3.18182C2.90545 10.6921 2.65727 10.5233 2.55182 10.264C2.51727 10.1791 2.5 10.0896 2.5 10.0001C2.5 9.85021 2.54798 9.70157 2.64026 9.57984L2.70091 9.51023L8.20091 3.95148C8.46727 3.68207 8.89909 3.683 9.16455 3.95332C9.40788 4.20197 9.42816 4.59093 9.22398 4.86154L9.16273 4.93222L4.83273 9.30818H16.8182C17.1945 9.30818 17.5 9.61818 17.5 10.0001ZM9.16282 15.0678C9.43009 15.3372 9.43009 15.7754 9.16464 16.0467C8.9213 16.2945 8.53818 16.3159 8.27015 16.1102L8.20009 16.0485L5.16736 12.9827C5.03282 12.8471 4.96645 12.6699 4.96645 12.4918C4.96645 12.3156 5.03282 12.1394 5.16555 12.0038C5.40888 11.7551 5.79124 11.7336 6.05914 11.94L6.12918 12.0019L9.16282 15.0678Z" fill="#FF2744"/>
</svg>
